<svg xmlns="http://www.w3.org/2000/svg" width="102.882" height="58" viewBox="0 0 102.882 58">
  <g id="그룹_8613" data-name="그룹 8613" transform="translate(-1664.431 -1321)">
    <g id="그룹_7957" data-name="그룹 7957" transform="translate(1165.431 1235.721)">
      <text id="모국어_습득방식" data-name="모국어 습득방식" transform="translate(543.914 96.279)" fill="#343434" font-size="13" font-family="NanumSquareOTFB, NanumSquareOTF"><tspan x="-43.03" y="0">모국어 습득방식</tspan></text>
      <path id="패스_1836" data-name="패스 1836" d="M1022.528,452.364H1008.5v-1.936h12.118v-3.47H1008.5v-2.112h14.026v-5.387h-19.416v18.295h19.416Zm42.45-3.193a8.206,8.206,0,1,0-8.184,8.182A8.23,8.23,0,0,0,1064.978,449.171Zm-8.184,2.841a2.79,2.79,0,0,1-2.885-2.841,2.736,2.736,0,0,1,2.885-2.841,2.841,2.841,0,1,1,0,5.682Zm28.194-11.023a8.182,8.182,0,1,0,8.184,8.182A8.241,8.241,0,0,0,1084.989,440.989Zm0,11.023a2.793,2.793,0,0,1-2.89-2.841,2.738,2.738,0,0,1,2.89-2.841,2.841,2.841,0,1,1,0,5.682Zm-13.728,5.781h3.806V439.664h-5.389v2.7h-3.561v5.389h3.561v1.959h-3.561V455.1h3.561v2.037a8.048,8.048,0,0,0-2.3-.341,8.219,8.219,0,1,0,3.887,1Zm-3.887,10.024a2.8,2.8,0,0,1-2.891-2.841,2.738,2.738,0,0,1,2.891-2.839,2.674,2.674,0,0,1,2.841,2.839A2.7,2.7,0,0,1,1067.374,467.817Zm-67-2.4h2.96v9.043h19.414v-5.389h-14.025v-3.653h15.66V460.03h-24.01Zm47.423-13.054h-14.026v-1.936h12.119v-3.47h-12.119v-2.112H1047.8v-5.387H1028.38v18.295H1047.8Zm-22.157,13.054h2.963v9.043h19.416v-5.389h-14.026v-3.653h15.66V460.03h-24.013Zm72.227-25.912v6.749h-3.553v5.388h3.553v6.109h5.389V439.506Z" transform="translate(-501.373 -331.181)" fill="#343434"/>
    </g>
  </g>
</svg>
