<svg xmlns="http://www.w3.org/2000/svg" width="224.867" height="225.546" viewBox="0 0 224.867 225.546">
  <g id="그룹_8580" data-name="그룹 8580" transform="translate(-10934.085 -705.083)">
    <g id="사각형_2067" data-name="사각형 2067" transform="translate(10945 717)" fill="#fff" stroke="#707070" stroke-width="1">
      <rect width="200" height="200" stroke="none"/>
      <rect x="0.5" y="0.5" width="199" height="199" fill="none"/>
    </g>
    <g id="그룹_8581" data-name="그룹 8581">
      <path id="빼기_2" data-name="빼기 2" d="M-6297.123,189.171h0a4.271,4.271,0,0,1-2.9-4.035,4.219,4.219,0,0,1,1.242-3.013,4.253,4.253,0,0,1,3.018-1.258h.018a4.271,4.271,0,0,1,4.267,4.242,4.263,4.263,0,0,1-.757,2.448,4.25,4.25,0,0,1-1.958,1.55c-.413.021-.846.04-1.406.061Zm-8.306-.157h0c-1.5-.1-2.973-.234-4.38-.395a4.3,4.3,0,0,1-1.76-3.445,4.271,4.271,0,0,1,4.263-4.269h.015a4.276,4.276,0,0,1,4.278,4.242,4.26,4.26,0,0,1-.667,2.311,4.289,4.289,0,0,1-1.749,1.555Zm18.584-.56h0a4.257,4.257,0,0,1-1.641-3.356,4.269,4.269,0,0,1,4.258-4.271h.012a4.277,4.277,0,0,1,4.28,4.242,4.262,4.262,0,0,1-.716,2.384c-2.061.4-4.144.74-6.192,1Zm-28.6-.643h0c-2.538-.443-5.076-.994-7.545-1.636a4.221,4.221,0,0,1-.111-.961,4.27,4.27,0,0,1,4.261-4.269h.015a4.27,4.27,0,0,1,4.268,4.242,4.243,4.243,0,0,1-.887,2.624Zm38.778-1.229h0a4.277,4.277,0,0,1-.282-1.522,4.273,4.273,0,0,1,4.265-4.271h.014a4.275,4.275,0,0,1,4.189,3.422c-2.681.91-5.435,1.707-8.185,2.371Zm-49.43-1.272h0c-2.6-.773-5.18-1.663-7.674-2.645a4.247,4.247,0,0,1,3.388-1.68h.015a4.272,4.272,0,0,1,4.273,4.24c0,.028,0,.055,0,.084Zm61.249-2.416v0a4.293,4.293,0,0,1,3.693-2.141h.018a4.262,4.262,0,0,1,1.086.14c-1.58.711-3.193,1.384-4.8,2Zm-77.081-4.394h-.014a4.227,4.227,0,0,1-1.41-.239c-.4-.21-.783-.416-1.178-.632a4.245,4.245,0,0,1-1.686-3.385,4.223,4.223,0,0,1,1.236-3.014,4.247,4.247,0,0,1,3.023-1.262h.015a4.273,4.273,0,0,1,4.269,4.247A4.275,4.275,0,0,1-6341.925,178.5Zm11.536-.037h-.013a4.282,4.282,0,0,1-4.277-4.258,4.274,4.274,0,0,1,4.261-4.276h.018a4.271,4.271,0,0,1,4.271,4.245A4.28,4.28,0,0,1-6330.389,178.461Zm11.542-.042h-.016a4.28,4.28,0,0,1-4.272-4.256,4.275,4.275,0,0,1,4.26-4.276h.015a4.271,4.271,0,0,1,4.269,4.247,4.244,4.244,0,0,1-1.245,3.028A4.231,4.231,0,0,1-6318.848,178.42Zm11.534-.037h-.015a4.284,4.284,0,0,1-4.279-4.258,4.276,4.276,0,0,1,4.263-4.276h.015a4.278,4.278,0,0,1,4.278,4.248A4.281,4.281,0,0,1-6307.314,178.383Zm11.545-.038h-.016a4.281,4.281,0,0,1-4.272-4.258,4.221,4.221,0,0,1,1.241-3.018,4.256,4.256,0,0,1,3.019-1.258h.015a4.273,4.273,0,0,1,4.269,4.247,4.243,4.243,0,0,1-1.24,3.024A4.239,4.239,0,0,1-6295.769,178.344Zm11.532-.04h-.016a4.279,4.279,0,0,1-4.27-4.256,4.226,4.226,0,0,1,1.24-3.019,4.248,4.248,0,0,1,3.017-1.258h.012a4.282,4.282,0,0,1,4.281,4.248A4.282,4.282,0,0,1-6284.237,178.3Zm11.546-.038h-.011a4.284,4.284,0,0,1-4.28-4.258,4.226,4.226,0,0,1,1.242-3.019,4.257,4.257,0,0,1,3.021-1.257h.018a4.244,4.244,0,0,1,3.014,1.242,4.238,4.238,0,0,1,1.255,3A4.279,4.279,0,0,1-6272.69,178.266Zm11.532-.04h-.013a4.281,4.281,0,0,1-4.272-4.258,4.271,4.271,0,0,1,4.256-4.276h.015a4.275,4.275,0,0,1,4.272,4.247A4.278,4.278,0,0,1-6261.159,178.226Zm8.651-1.149h0a4.279,4.279,0,0,1-1.4-3.147,4.226,4.226,0,0,1,1.243-3.018,4.25,4.25,0,0,1,3.017-1.256h.014a4.238,4.238,0,0,1,2.594.874,4.289,4.289,0,0,1,1.512,2.213c-2.261,1.545-4.609,3-6.977,4.335Zm-96.739-2.214h0c-2.147-1.342-4.274-2.793-6.321-4.313a4.324,4.324,0,0,1,2.083-.544h.015a4.273,4.273,0,0,1,4.266,4.248,4.188,4.188,0,0,1-.041.608Zm-4.247-7.374h-.014a4.286,4.286,0,0,1-4.29-4.256,4.218,4.218,0,0,1,1.249-3.019,4.274,4.274,0,0,1,3.025-1.258h.012a4.273,4.273,0,0,1,4.269,4.248A4.273,4.273,0,0,1-6353.494,167.489Zm11.53-.04h-.018a4.248,4.248,0,0,1-3.015-1.241,4.236,4.236,0,0,1-1.256-3.016,4.274,4.274,0,0,1,4.259-4.276h.015a4.273,4.273,0,0,1,4.269,4.247,4.244,4.244,0,0,1-1.239,3.029A4.244,4.244,0,0,1-6341.963,167.449Zm11.536-.038h-.015a4.252,4.252,0,0,1-3.017-1.241,4.241,4.241,0,0,1-1.257-3.015,4.274,4.274,0,0,1,4.261-4.277h.015a4.276,4.276,0,0,1,4.273,4.248,4.241,4.241,0,0,1-1.24,3.029A4.251,4.251,0,0,1-6330.428,167.411Zm11.543-.038h-.016a4.25,4.25,0,0,1-3.018-1.241,4.242,4.242,0,0,1-1.257-3.015,4.277,4.277,0,0,1,4.263-4.277h.015a4.272,4.272,0,0,1,4.267,4.247A4.277,4.277,0,0,1-6318.885,167.372Zm11.532-.04h-.016a4.253,4.253,0,0,1-3.018-1.241,4.241,4.241,0,0,1-1.258-3.016,4.224,4.224,0,0,1,1.242-3.018,4.258,4.258,0,0,1,3.021-1.258h.015a4.275,4.275,0,0,1,4.276,4.248,4.238,4.238,0,0,1-1.242,3.028A4.251,4.251,0,0,1-6307.353,167.332Zm11.548-.037h-.013a4.256,4.256,0,0,1-3.019-1.242,4.243,4.243,0,0,1-1.258-3.016,4.224,4.224,0,0,1,1.242-3.019,4.255,4.255,0,0,1,3.019-1.257h.015a4.272,4.272,0,0,1,4.268,4.247,4.245,4.245,0,0,1-1.239,3.028A4.244,4.244,0,0,1-6295.8,167.3Zm11.53-.04h-.015a4.249,4.249,0,0,1-3.016-1.241,4.243,4.243,0,0,1-1.256-3.015,4.229,4.229,0,0,1,1.241-3.019,4.248,4.248,0,0,1,3.017-1.258h.015a4.277,4.277,0,0,1,4.276,4.248,4.238,4.238,0,0,1-1.242,3.029A4.256,4.256,0,0,1-6284.274,167.255Zm11.546-.04h-.014a4.258,4.258,0,0,1-3.021-1.241,4.242,4.242,0,0,1-1.258-3.014,4.227,4.227,0,0,1,1.241-3.019,4.259,4.259,0,0,1,3.023-1.258h.015a4.277,4.277,0,0,1,4.272,4.247,4.242,4.242,0,0,1-1.24,3.029A4.248,4.248,0,0,1-6272.728,167.215Zm11.532-.037h-.015a4.245,4.245,0,0,1-3.013-1.242,4.244,4.244,0,0,1-1.257-3.016,4.227,4.227,0,0,1,1.242-3.018,4.249,4.249,0,0,1,3.016-1.258h.015a4.271,4.271,0,0,1,4.269,4.247,4.238,4.238,0,0,1-1.24,3.03A4.246,4.246,0,0,1-6261.2,167.178Zm11.537-.039h-.013a4.254,4.254,0,0,1-3.016-1.241,4.247,4.247,0,0,1-1.261-3.017,4.279,4.279,0,0,1,4.263-4.277h.012a4.274,4.274,0,0,1,4.27,4.248,4.239,4.239,0,0,1-1.238,3.029A4.247,4.247,0,0,1-6249.659,167.14Zm11.574-.038h-.048a4.244,4.244,0,0,1-3.015-1.242,4.247,4.247,0,0,1-1.256-3.016,4.273,4.273,0,0,1,4.255-4.277h.012a4.275,4.275,0,0,1,4.276,4.248,4.046,4.046,0,0,1-.034.558c-1.358,1.281-2.768,2.535-4.19,3.728Zm-123.469-1.385h0c-2.106-1.846-4.158-3.812-6.1-5.844a4.271,4.271,0,0,1,2.59-.878h.012a4.275,4.275,0,0,1,4.271,4.248,4.26,4.26,0,0,1-.772,2.473Zm-3.519-9.239h-.014a4.266,4.266,0,0,1-3.024-1.241,4.229,4.229,0,0,1-1.258-3.009,4.28,4.28,0,0,1,4.266-4.284h.015a4.278,4.278,0,0,1,4.269,4.256,4.228,4.228,0,0,1-1.238,3.022A4.246,4.246,0,0,1-6365.072,156.477Zm11.54-.039h-.016a4.281,4.281,0,0,1-4.288-4.248,4.232,4.232,0,0,1,1.249-3.023,4.272,4.272,0,0,1,3.027-1.262h.015a4.276,4.276,0,0,1,4.266,4.256A4.271,4.271,0,0,1-6353.532,156.439Zm11.534-.04h-.013a4.259,4.259,0,0,1-3.019-1.24,4.226,4.226,0,0,1-1.259-3.009,4.278,4.278,0,0,1,4.261-4.285h.015a4.278,4.278,0,0,1,4.269,4.256A4.271,4.271,0,0,1-6342,156.4Zm11.535-.038h-.016a4.278,4.278,0,0,1-4.276-4.248,4.281,4.281,0,0,1,4.263-4.285h.015a4.28,4.28,0,0,1,4.274,4.256,4.228,4.228,0,0,1-1.24,3.021A4.258,4.258,0,0,1-6330.463,156.36Zm11.541-.038h-.016a4.253,4.253,0,0,1-3.017-1.24,4.232,4.232,0,0,1-1.255-3.008,4.242,4.242,0,0,1,1.239-3.023,4.247,4.247,0,0,1,3.02-1.262h.015a4.277,4.277,0,0,1,4.269,4.255,4.233,4.233,0,0,1-1.241,3.023A4.246,4.246,0,0,1-6318.923,156.321Zm11.535-.04h-.016a4.259,4.259,0,0,1-3.019-1.24,4.228,4.228,0,0,1-1.259-3.009,4.236,4.236,0,0,1,1.24-3.021,4.248,4.248,0,0,1,3.022-1.263h.015a4.283,4.283,0,0,1,4.279,4.256,4.225,4.225,0,0,1-1.243,3.021A4.253,4.253,0,0,1-6307.388,156.281Zm11.543-.038h-.016a4.273,4.273,0,0,1-4.272-4.248,4.236,4.236,0,0,1,1.241-3.023,4.247,4.247,0,0,1,3.018-1.262h.015a4.278,4.278,0,0,1,4.269,4.256,4.232,4.232,0,0,1-1.239,3.022A4.247,4.247,0,0,1-6295.845,156.243Zm11.532-.039h-.014a4.252,4.252,0,0,1-3.017-1.24,4.231,4.231,0,0,1-1.256-3.008,4.243,4.243,0,0,1,1.24-3.023,4.244,4.244,0,0,1,3.018-1.262h.015a4.281,4.281,0,0,1,4.277,4.255,4.229,4.229,0,0,1-1.242,3.023A4.258,4.258,0,0,1-6284.312,156.2Zm11.546-.038h-.016a4.257,4.257,0,0,1-3.019-1.24,4.23,4.23,0,0,1-1.257-3.008,4.279,4.279,0,0,1,4.263-4.285h.015a4.277,4.277,0,0,1,4.271,4.255,4.228,4.228,0,0,1-1.238,3.023A4.25,4.25,0,0,1-6272.766,156.166Zm11.534-.04h-.014a4.272,4.272,0,0,1-4.271-4.247,4.239,4.239,0,0,1,1.24-3.024,4.24,4.24,0,0,1,3.015-1.263h.012a4.283,4.283,0,0,1,4.277,4.258A4.272,4.272,0,0,1-6261.232,156.126Zm11.539-.04h-.014a4.258,4.258,0,0,1-3.018-1.24,4.231,4.231,0,0,1-1.26-3.007,4.239,4.239,0,0,1,1.243-3.023,4.251,4.251,0,0,1,3.018-1.262h.015a4.277,4.277,0,0,1,4.267,4.256,4.224,4.224,0,0,1-1.237,3.02A4.243,4.243,0,0,1-6249.694,156.086Zm11.535-.037h-.013a4.248,4.248,0,0,1-3.014-1.24,4.236,4.236,0,0,1-1.256-3.009,4.276,4.276,0,0,1,4.254-4.285h.015a4.284,4.284,0,0,1,4.277,4.256,4.233,4.233,0,0,1-1.243,3.022A4.258,4.258,0,0,1-6238.159,156.049Zm11.285-.047h0a4.267,4.267,0,0,1-4.034-4.24,4.244,4.244,0,0,1,1.241-3.024,4.237,4.237,0,0,1,3.014-1.263h.011a4.251,4.251,0,0,1,2.586.867,4.3,4.3,0,0,1,1.521,2.194c-1.362,1.853-2.821,3.692-4.338,5.466Zm-145.888-1.932h0c-1.579-1.947-3.1-3.978-4.511-6.038a4.239,4.239,0,0,1,.629-.05h.012a4.28,4.28,0,0,1,4.277,4.258,4.22,4.22,0,0,1-.4,1.829Zm-3.891-8.6h-.015a4.271,4.271,0,0,1-3.232-1.476c-.279-.453-.524-.858-.75-1.239a4.273,4.273,0,0,1-.291-1.534,4.279,4.279,0,0,1,4.258-4.285h.015a4.28,4.28,0,0,1,4.273,4.256,4.228,4.228,0,0,1-1.243,3.019A4.252,4.252,0,0,1-6376.652,145.468Zm11.542-.04h-.013a4.264,4.264,0,0,1-3.023-1.242,4.232,4.232,0,0,1-1.259-3.006,4.283,4.283,0,0,1,4.266-4.285h.015a4.28,4.28,0,0,1,4.271,4.256A4.274,4.274,0,0,1-6365.111,145.428Zm11.54-.038h-.013a4.285,4.285,0,0,1-4.29-4.248,4.224,4.224,0,0,1,1.248-3.023,4.273,4.273,0,0,1,3.028-1.262h.015a4.276,4.276,0,0,1,4.264,4.256A4.272,4.272,0,0,1-6353.571,145.389Zm11.536-.04h-.015a4.274,4.274,0,0,1-4.275-4.247,4.239,4.239,0,0,1,1.242-3.023,4.247,4.247,0,0,1,3.017-1.262h.015a4.278,4.278,0,0,1,4.269,4.256A4.269,4.269,0,0,1-6342.035,145.349Zm11.534-.038h-.018a4.274,4.274,0,0,1-4.272-4.247,4.239,4.239,0,0,1,1.243-3.023,4.247,4.247,0,0,1,3.018-1.262h.018a4.276,4.276,0,0,1,4.271,4.256,4.228,4.228,0,0,1-1.239,3.018A4.254,4.254,0,0,1-6330.5,145.311Zm11.543-.04h-.014a4.274,4.274,0,0,1-4.274-4.248,4.242,4.242,0,0,1,2.008-3.636,7.651,7.651,0,0,0,2.276,3.933,5.53,5.53,0,0,0,3.676,1.348c.081,0,.165,0,.249,0A4.265,4.265,0,0,1-6318.958,145.271Zm11.532-.038h-.015a4.266,4.266,0,0,1-4.212-3.51,13.07,13.07,0,0,0,2.422-1.606l3.628-3a4.3,4.3,0,0,1,2.439,3.842A4.275,4.275,0,0,1-6307.426,145.232Zm11.543-.039h-.013a4.279,4.279,0,0,1-4.275-4.247,4.241,4.241,0,0,1,1.243-3.024,4.245,4.245,0,0,1,3.019-1.261h.015a4.278,4.278,0,0,1,4.269,4.256A4.271,4.271,0,0,1-6295.883,145.194Zm11.532-.038h-.013a4.273,4.273,0,0,1-4.271-4.248,4.24,4.24,0,0,1,1.239-3.023,4.244,4.244,0,0,1,3.017-1.262h.015a4.28,4.28,0,0,1,4.275,4.258,4.22,4.22,0,0,1-1.241,3.018A4.259,4.259,0,0,1-6284.351,145.155Zm11.547-.039h-.013a4.276,4.276,0,0,1-4.277-4.248,4.238,4.238,0,0,1,1.24-3.024,4.245,4.245,0,0,1,3.021-1.262h.015a4.28,4.28,0,0,1,4.272,4.256,4.222,4.222,0,0,1-1.239,3.018A4.256,4.256,0,0,1-6272.8,145.117Zm11.535-.04h-.015a4.276,4.276,0,0,1-4.272-4.248,4.279,4.279,0,0,1,4.258-4.285h.015a4.282,4.282,0,0,1,4.272,4.256A4.273,4.273,0,0,1-6261.269,145.077Zm11.537-.04h-.016a4.273,4.273,0,0,1-4.274-4.247,4.28,4.28,0,0,1,4.26-4.285h.015a4.278,4.278,0,0,1,4.269,4.256A4.27,4.27,0,0,1-6249.732,145.036ZM-6238.2,145h-.015a4.274,4.274,0,0,1-4.269-4.248,4.274,4.274,0,0,1,4.255-4.284h.018a4.277,4.277,0,0,1,4.271,4.255A4.275,4.275,0,0,1-6238.2,145Zm11.535-.037h-.014a4.273,4.273,0,0,1-4.271-4.248,4.274,4.274,0,0,1,4.253-4.285h.018a4.281,4.281,0,0,1,4.276,4.255,4.222,4.222,0,0,1-1.242,3.02A4.258,4.258,0,0,1-6226.66,144.961Zm8.647-1.155h0a4.268,4.268,0,0,1-1.389-3.131,4.239,4.239,0,0,1,1.24-3.026,4.235,4.235,0,0,1,3.014-1.259h.018a4.269,4.269,0,0,1,1.133.152c-1.228,2.472-2.579,4.916-4.015,7.263Zm-158.677-9.389h-.013a4.279,4.279,0,0,1-4.274-4.248,4.278,4.278,0,0,1,4.258-4.285h.015a4.279,4.279,0,0,1,4.274,4.258,4.218,4.218,0,0,1-1.242,3.018A4.254,4.254,0,0,1-6376.689,134.417Zm11.542-.039h-.015a4.262,4.262,0,0,1-3.022-1.242,4.227,4.227,0,0,1-1.258-3.007,4.235,4.235,0,0,1,1.242-3.026,4.259,4.259,0,0,1,3.024-1.258h.015a4.243,4.243,0,0,1,3.014,1.242,4.236,4.236,0,0,1,1.254,3.012,4.226,4.226,0,0,1-1.238,3.02A4.246,4.246,0,0,1-6365.147,134.379Zm11.54-.04h-.015a4.281,4.281,0,0,1-4.288-4.247,4.227,4.227,0,0,1,1.247-3.026,4.274,4.274,0,0,1,3.027-1.259h.015a4.273,4.273,0,0,1,4.264,4.255,4.23,4.23,0,0,1-1.24,3.019A4.239,4.239,0,0,1-6353.607,134.339Zm11.534-.039h-.016a4.276,4.276,0,0,1-4.274-4.245,4.242,4.242,0,0,1,1.243-3.028,4.251,4.251,0,0,1,3.019-1.259h.015a4.242,4.242,0,0,1,3.013,1.243,4.245,4.245,0,0,1,1.255,3.013,4.23,4.23,0,0,1-1.239,3.019A4.242,4.242,0,0,1-6342.074,134.3Zm11.534-.038h-.013a4.277,4.277,0,0,1-4.275-4.248,4.278,4.278,0,0,1,4.26-4.285h.012a4.256,4.256,0,0,1,3.021,1.243,4.241,4.241,0,0,1,1.257,3.014A4.274,4.274,0,0,1-6330.54,134.262Zm34.622-.117h-.018a4.25,4.25,0,0,1-3.635-2.023l6.519-5.395a4.282,4.282,0,0,1,1.388,3.142,4.225,4.225,0,0,1-1.238,3.018A4.244,4.244,0,0,1-6295.918,134.145Zm11.531-.04h-.015a4.269,4.269,0,0,1-4.271-4.247,4.238,4.238,0,0,1,1.239-3.027,4.247,4.247,0,0,1,3.015-1.26h.015a4.254,4.254,0,0,1,3.019,1.244,4.25,4.25,0,0,1,1.261,3.014A4.277,4.277,0,0,1-6284.388,134.1Zm11.548-.038h-.014a4.259,4.259,0,0,1-3.021-1.242,4.232,4.232,0,0,1-1.258-3.006,4.243,4.243,0,0,1,1.243-3.026,4.259,4.259,0,0,1,3.021-1.259h.012a4.248,4.248,0,0,1,3.018,1.244,4.246,4.246,0,0,1,1.255,3.014,4.228,4.228,0,0,1-1.239,3.018A4.247,4.247,0,0,1-6272.84,134.066Zm11.532-.039h-.013a4.279,4.279,0,0,1-4.274-4.248,4.277,4.277,0,0,1,4.258-4.285h.015a4.244,4.244,0,0,1,3.014,1.243,4.248,4.248,0,0,1,1.257,3.013A4.274,4.274,0,0,1-6261.308,134.027Zm11.537-.038h-.013a4.279,4.279,0,0,1-4.277-4.248,4.278,4.278,0,0,1,4.261-4.285h.015a4.242,4.242,0,0,1,3.015,1.243,4.245,4.245,0,0,1,1.254,3.013A4.272,4.272,0,0,1-6249.771,133.989Zm11.539-.038h-.014a4.273,4.273,0,0,1-4.27-4.248,4.275,4.275,0,0,1,4.253-4.287h.012a4.251,4.251,0,0,1,3.02,1.244,4.247,4.247,0,0,1,1.258,3.014A4.276,4.276,0,0,1-6238.232,133.95Zm11.534-.042h-.016a4.272,4.272,0,0,1-4.268-4.245,4.276,4.276,0,0,1,4.255-4.287h.012a4.261,4.261,0,0,1,3.021,1.243,4.243,4.243,0,0,1,1.26,3.014,4.225,4.225,0,0,1-1.244,3.019A4.255,4.255,0,0,1-6226.7,133.909Zm11.54-.037h-.013a4.274,4.274,0,0,1-4.269-4.248,4.243,4.243,0,0,1,1.239-3.026,4.241,4.241,0,0,1,3.016-1.259h.012a4.284,4.284,0,0,1,4.283,4.255c-.417,1.046-.85,2.074-1.285,3.058A4.254,4.254,0,0,1-6215.159,133.872Zm-170.333-.414h0c-1.115-2.465-2.13-5-3.018-7.525.1-.006.182-.008.252-.008h.015a4.281,4.281,0,0,1,4.277,4.256,4.244,4.244,0,0,1-1.524,3.277Zm63.26-.693,0,0a4.257,4.257,0,0,1-1.05-2.788,4.288,4.288,0,0,1,.191-1.282l.861,4.069Zm-66.036-9.357h-.013a4.352,4.352,0,0,1-1.126-.149c-.738-2.315-1.4-4.7-1.953-7.08a4.243,4.243,0,0,1,3.064-1.3h.015a4.276,4.276,0,0,1,4.274,4.247,4.242,4.242,0,0,1-1.242,3.024A4.249,4.249,0,0,1-6388.268,123.408Zm11.54-.04h-.016a4.278,4.278,0,0,1-4.271-4.255,4.273,4.273,0,0,1,4.258-4.277h.015a4.278,4.278,0,0,1,4.275,4.247A4.28,4.28,0,0,1-6376.728,123.368Zm11.543-.038h-.016a4.283,4.283,0,0,1-4.279-4.256,4.279,4.279,0,0,1,4.266-4.277h.015a4.271,4.271,0,0,1,4.267,4.248,4.24,4.24,0,0,1-1.238,3.023A4.239,4.239,0,0,1-6365.185,123.33Zm11.54-.04h-.016a4.285,4.285,0,0,1-4.288-4.256,4.216,4.216,0,0,1,1.25-3.019,4.275,4.275,0,0,1,3.026-1.257h.015a4.271,4.271,0,0,1,4.266,4.247,4.243,4.243,0,0,1-1.241,3.023A4.235,4.235,0,0,1-6353.645,123.289Zm11.534-.038h-.016A4.28,4.28,0,0,1-6346.4,119a4.276,4.276,0,0,1,4.261-4.277h.012a4.275,4.275,0,0,1,4.272,4.247,4.246,4.246,0,0,1-1.24,3.025A4.234,4.234,0,0,1-6342.111,123.251Zm11.535-.037h-.016a4.282,4.282,0,0,1-4.274-4.258,4.275,4.275,0,0,1,4.26-4.276h.015a4.272,4.272,0,0,1,4.274,4.247,4.243,4.243,0,0,1-1.239,3.024A4.246,4.246,0,0,1-6330.576,123.214Zm46.151-.157h-.014a4.261,4.261,0,0,1-2.855-1.1l6.513-5.39a4.247,4.247,0,0,1,.621,2.2A4.283,4.283,0,0,1-6284.425,123.057Zm11.546-.04h-.014a4.282,4.282,0,0,1-4.277-4.256,4.221,4.221,0,0,1,1.24-3.019,4.257,4.257,0,0,1,3.021-1.257h.015a4.248,4.248,0,0,1,3.017,1.242,4.232,4.232,0,0,1,1.255,3.007,4.235,4.235,0,0,1-1.238,3.022A4.244,4.244,0,0,1-6272.878,123.017Zm11.534-.037h-.014a4.28,4.28,0,0,1-4.271-4.258,4.222,4.222,0,0,1,1.241-3.018,4.25,4.25,0,0,1,3.016-1.258h.015a4.275,4.275,0,0,1,4.272,4.247A4.279,4.279,0,0,1-6261.345,122.98Zm11.536-.04h-.013a4.279,4.279,0,0,1-4.275-4.256,4.223,4.223,0,0,1,1.242-3.019,4.251,4.251,0,0,1,3.016-1.258h.015a4.271,4.271,0,0,1,4.27,4.247,4.245,4.245,0,0,1-1.238,3.024A4.239,4.239,0,0,1-6249.809,122.94Zm11.54-.04h-.018a4.277,4.277,0,0,1-4.268-4.256,4.23,4.23,0,0,1,1.239-3.019,4.242,4.242,0,0,1,3.015-1.256h.018a4.274,4.274,0,0,1,4.272,4.247A4.279,4.279,0,0,1-6238.269,122.9Zm11.532-.037h-.013a4.28,4.28,0,0,1-4.269-4.256,4.226,4.226,0,0,1,1.239-3.02,4.248,4.248,0,0,1,3.016-1.257h.015a4.28,4.28,0,0,1,4.276,4.248A4.284,4.284,0,0,1-6226.737,122.863Zm11.542-.039h-.013a4.276,4.276,0,0,1-4.269-4.258,4.232,4.232,0,0,1,1.239-3.019,4.239,4.239,0,0,1,3.015-1.257h.015a4.276,4.276,0,0,1,4.279,4.247,4.23,4.23,0,0,1-1.245,3.024A4.256,4.256,0,0,1-6215.2,122.824Zm7.537-2.779v0a4.217,4.217,0,0,1-.283-1.515,4.256,4.256,0,0,1,1.481-3.241c-.36,1.6-.763,3.2-1.2,4.756Zm-180.646-7.688h-.013a4.281,4.281,0,0,1-4.274-4.256,4.217,4.217,0,0,1,1.232-3.01,4.25,4.25,0,0,1,3.026-1.259h.021a4.271,4.271,0,0,1,4.271,4.24A4.279,4.279,0,0,1-6388.3,112.357Zm11.54-.038h-.016a4.278,4.278,0,0,1-4.271-4.255,4.269,4.269,0,0,1,4.256-4.272h.012a4.275,4.275,0,0,1,4.278,4.242,4.241,4.241,0,0,1-1.243,3.024A4.242,4.242,0,0,1-6376.765,112.319Zm11.542-.04h-.013a4.285,4.285,0,0,1-4.282-4.256,4.215,4.215,0,0,1,1.242-3.016,4.263,4.263,0,0,1,3.024-1.253h.018a4.268,4.268,0,0,1,4.266,4.24A4.275,4.275,0,0,1-6365.223,112.279Zm11.542-.037h-.015a4.292,4.292,0,0,1-4.292-4.258,4.28,4.28,0,0,1,4.277-4.269h.015a4.267,4.267,0,0,1,4.264,4.242,4.242,4.242,0,0,1-1.24,3.023A4.235,4.235,0,0,1-6353.681,112.242Zm11.532-.038h-.014a4.281,4.281,0,0,1-4.274-4.258,4.212,4.212,0,0,1,1.241-3.015,4.261,4.261,0,0,1,3.02-1.254h.018a4.267,4.267,0,0,1,4.264,4.24A4.276,4.276,0,0,1-6342.149,112.2Zm11.534-.04h-.013a4.281,4.281,0,0,1-4.275-4.256,4.22,4.22,0,0,1,1.242-3.017,4.257,4.257,0,0,1,3.018-1.254h.015a4.275,4.275,0,0,1,2.38.717l1.233,5.822A4.258,4.258,0,0,1-6330.616,112.163Zm57.7-.2h-.016a4.243,4.243,0,0,1-1.8-.4l5.948-4.922a4.293,4.293,0,0,1,.13,1.035,4.236,4.236,0,0,1-1.239,3.023A4.247,4.247,0,0,1-6272.917,111.968Zm11.535-.037h-.013a4.279,4.279,0,0,1-4.274-4.258,4.215,4.215,0,0,1,1.241-3.015,4.253,4.253,0,0,1,3.015-1.254h.018a4.268,4.268,0,0,1,4.269,4.24A4.279,4.279,0,0,1-6261.381,111.931Zm11.535-.04h-.013a4.279,4.279,0,0,1-4.276-4.256,4.271,4.271,0,0,1,4.26-4.271h.015a4.249,4.249,0,0,1,3.015,1.239,4.225,4.225,0,0,1,1.254,3A4.275,4.275,0,0,1-6249.846,111.891Zm11.537-.038h-.013a4.281,4.281,0,0,1-4.269-4.258,4.267,4.267,0,0,1,4.255-4.269h.015a4.256,4.256,0,0,1,3.018,1.239,4.22,4.22,0,0,1,1.257,3A4.279,4.279,0,0,1-6238.309,111.852Zm11.537-.04h-.014a4.282,4.282,0,0,1-4.271-4.258,4.267,4.267,0,0,1,4.255-4.269h.012a4.267,4.267,0,0,1,3.022,1.239,4.216,4.216,0,0,1,1.259,3,4.239,4.239,0,0,1-1.243,3.023A4.252,4.252,0,0,1-6226.772,111.812Zm11.539-.038h-.013a4.278,4.278,0,0,1-4.27-4.256,4.267,4.267,0,0,1,4.253-4.271h.015a4.275,4.275,0,0,1,4.28,4.242,4.232,4.232,0,0,1-1.246,3.023A4.256,4.256,0,0,1-6215.234,111.773Zm9.581-.509h0a4.264,4.264,0,0,1-2.326-3.789,4.269,4.269,0,0,1,3.4-4.181c-.245,2.672-.607,5.353-1.075,7.969Zm-182.688-9.958h-.014a4.244,4.244,0,0,1-3.019-1.246,4.253,4.253,0,0,1-1.254-3.017,4.224,4.224,0,0,1,1.238-3.018,4.254,4.254,0,0,1,3.019-1.259h.012a4.282,4.282,0,0,1,4.281,4.248,4.248,4.248,0,0,1-1.243,3.03A4.251,4.251,0,0,1-6388.342,101.307Zm11.539-.037h-.015a4.28,4.28,0,0,1-4.271-4.263,4.273,4.273,0,0,1,4.255-4.277h.015a4.277,4.277,0,0,1,4.275,4.248A4.281,4.281,0,0,1-6376.8,101.27Zm11.545-.04h-.015a4.257,4.257,0,0,1-3.024-1.247,4.251,4.251,0,0,1-1.258-3.018,4.223,4.223,0,0,1,1.242-3.018,4.261,4.261,0,0,1,3.024-1.258h.015a4.246,4.246,0,0,1,3.014,1.242A4.238,4.238,0,0,1-6361,96.938,4.28,4.28,0,0,1-6365.258,101.23Zm11.54-.038h-.014a4.294,4.294,0,0,1-4.292-4.264,4.281,4.281,0,0,1,4.276-4.276h.015a4.274,4.274,0,0,1,4.267,4.247A4.279,4.279,0,0,1-6353.718,101.191Zm11.532-.04h-.013a4.284,4.284,0,0,1-4.277-4.261,4.229,4.229,0,0,1,1.243-3.02,4.254,4.254,0,0,1,3.019-1.259h.015a4.275,4.275,0,0,1,4.268,4.248A4.28,4.28,0,0,1-6342.186,101.151Zm11.535-.038h-.011a4.286,4.286,0,0,1-4.279-4.263,4.23,4.23,0,0,1,1.222-3,4.254,4.254,0,0,1,2.975-1.278l1.738,8.206A4.252,4.252,0,0,1-6330.651,101.113Zm69.231-.234h-.013c-.121,0-.244-.005-.366-.016l4.616-3.819A4.266,4.266,0,0,1-6261.42,100.878Zm11.535-.038h-.014a4.284,4.284,0,0,1-4.274-4.263,4.224,4.224,0,0,1,1.243-3.019,4.254,4.254,0,0,1,3.017-1.258h.015a4.277,4.277,0,0,1,4.27,4.248,4.252,4.252,0,0,1-1.239,3.03A4.239,4.239,0,0,1-6249.885,100.84Zm11.54-.04h-.016a4.234,4.234,0,0,1-3.012-1.246,4.26,4.26,0,0,1-1.256-3.017,4.27,4.27,0,0,1,4.255-4.276h.015a4.276,4.276,0,0,1,4.275,4.247,4.248,4.248,0,0,1-1.242,3.03A4.246,4.246,0,0,1-6238.345,100.8Zm11.536-.038h-.016a4.282,4.282,0,0,1-4.27-4.263,4.271,4.271,0,0,1,4.256-4.276h.012a4.274,4.274,0,0,1,4.278,4.247,4.248,4.248,0,0,1-1.242,3.03A4.246,4.246,0,0,1-6226.809,100.761Zm11.54-.04h-.013a4.282,4.282,0,0,1-4.271-4.261,4.231,4.231,0,0,1,1.239-3.019,4.245,4.245,0,0,1,3.015-1.258h.015A4.281,4.281,0,0,1-6211,96.431,4.284,4.284,0,0,1-6215.269,100.721Zm10.9-.083h0a4.272,4.272,0,0,1-2.591-1.416,4.275,4.275,0,0,1-1.055-2.8,4.258,4.258,0,0,1,3.769-4.245l.02,5.541c-.032.988-.08,1.97-.142,2.92ZM-6388.38,90.251h-.014a4.25,4.25,0,0,1-3.018-1.242A4.232,4.232,0,0,1-6392.667,86a4.277,4.277,0,0,1,4.258-4.285h.015a4.28,4.28,0,0,1,4.277,4.256,4.221,4.221,0,0,1-1.242,3.019A4.258,4.258,0,0,1-6388.38,90.251Zm11.54-.04h-.016a4.271,4.271,0,0,1-4.27-4.247,4.276,4.276,0,0,1,4.256-4.285h.015a4.28,4.28,0,0,1,4.275,4.255,4.227,4.227,0,0,1-1.244,3.021A4.251,4.251,0,0,1-6376.84,90.211Zm11.543-.039h-.014a4.264,4.264,0,0,1-3.023-1.242,4.229,4.229,0,0,1-1.258-3.006,4.235,4.235,0,0,1,1.239-3.021,4.254,4.254,0,0,1,3.027-1.263h.018a4.278,4.278,0,0,1,4.266,4.255A4.273,4.273,0,0,1-6365.3,90.172Zm11.54-.038h-.014a4.284,4.284,0,0,1-4.29-4.248,4.233,4.233,0,0,1,1.248-3.023,4.262,4.262,0,0,1,3.026-1.262h.015a4.278,4.278,0,0,1,4.267,4.256A4.271,4.271,0,0,1-6353.757,90.134Zm11.534-.04h-.014a4.277,4.277,0,0,1-4.276-4.247,4.278,4.278,0,0,1,4.26-4.285h.015a4.276,4.276,0,0,1,4.269,4.256,4.226,4.226,0,0,1-1.238,3.018A4.246,4.246,0,0,1-6342.223,90.094Zm10.938-.078h0a4.274,4.274,0,0,1-2.621-1.4,4.252,4.252,0,0,1-1.07-2.806,4.245,4.245,0,0,1,2.029-3.648l1.664,7.855Zm92.9-.272h-.013a4.274,4.274,0,0,1-4.271-4.248,4.241,4.241,0,0,1,1.24-3.023,4.241,4.241,0,0,1,3.016-1.262h.015a4.28,4.28,0,0,1,4.273,4.256,4.227,4.227,0,0,1-1.242,3.019A4.252,4.252,0,0,1-6238.383,89.744Zm11.534-.04h-.016a4.271,4.271,0,0,1-4.266-4.247,4.244,4.244,0,0,1,1.24-3.023,4.238,4.238,0,0,1,3.013-1.262h.015a4.284,4.284,0,0,1,4.279,4.255A4.276,4.276,0,0,1-6226.85,89.7Zm11.542-.04h-.013a4.274,4.274,0,0,1-4.269-4.248,4.235,4.235,0,0,1,1.238-3.021,4.238,4.238,0,0,1,3.015-1.262h.015a4.283,4.283,0,0,1,4.28,4.256,4.223,4.223,0,0,1-1.246,3.019A4.258,4.258,0,0,1-6215.308,89.664Zm11-.071h0a4.268,4.268,0,0,1-3.749-4.216A4.25,4.25,0,0,1-6205.1,81.3c.383,2.727.649,5.516.792,8.292Zm-43.113-.628v0l.16-.132c.111-.093.22-.186.324-.276A4.255,4.255,0,0,1-6247.418,88.965Zm-141-9.765h-.015a4.258,4.258,0,0,1-3.78-2.267c.336-1.787.732-3.6,1.178-5.384a4.24,4.24,0,0,1,2.587-.881h.015a4.281,4.281,0,0,1,4.277,4.256,4.221,4.221,0,0,1-1.242,3.022A4.26,4.26,0,0,1-6388.418,79.2Zm11.542-.038h-.015a4.254,4.254,0,0,1-3.016-1.239,4.231,4.231,0,0,1-1.257-3.009,4.24,4.24,0,0,1,1.241-3.023,4.236,4.236,0,0,1,3.016-1.261h.018a4.277,4.277,0,0,1,4.272,4.255,4.228,4.228,0,0,1-1.243,3.023A4.255,4.255,0,0,1-6376.877,79.162Zm11.543-.038h-.016a4.266,4.266,0,0,1-3.023-1.238,4.224,4.224,0,0,1-1.257-3.008,4.284,4.284,0,0,1,4.268-4.287h.012a4.279,4.279,0,0,1,4.271,4.258,4.231,4.231,0,0,1-1.239,3.022A4.24,4.24,0,0,1-6365.333,79.123Zm11.538-.04h-.016a4.283,4.283,0,0,1-4.289-4.247,4.286,4.286,0,0,1,4.277-4.285h.015a4.276,4.276,0,0,1,4.264,4.256A4.269,4.269,0,0,1-6353.8,79.083Zm11.536-.038h-.015a4.258,4.258,0,0,1-3.017-1.239,4.229,4.229,0,0,1-1.258-3.01,4.239,4.239,0,0,1,1.242-3.023,4.247,4.247,0,0,1,3.019-1.262h.015a4.28,4.28,0,0,1,4.269,4.258,4.229,4.229,0,0,1-1.239,3.022A4.247,4.247,0,0,1-6342.26,79.045Zm103.838-.351h-.015a4.246,4.246,0,0,1-3.013-1.239,4.226,4.226,0,0,1-1.254-3.01,4.242,4.242,0,0,1,1.239-3.023,4.232,4.232,0,0,1,3.014-1.261h.015a4.282,4.282,0,0,1,4.275,4.255,4.23,4.23,0,0,1-1.242,3.023A4.255,4.255,0,0,1-6238.421,78.693Zm11.535-.039h-.015a4.248,4.248,0,0,1-3.013-1.238,4.229,4.229,0,0,1-1.256-3.008,4.237,4.237,0,0,1,1.241-3.025,4.235,4.235,0,0,1,3.014-1.26h.015a4.282,4.282,0,0,1,4.277,4.256,4.225,4.225,0,0,1-1.242,3.022A4.259,4.259,0,0,1-6226.886,78.655Zm11.542-.038h-.016a4.244,4.244,0,0,1-3.012-1.239,4.234,4.234,0,0,1-1.254-3.009,4.244,4.244,0,0,1,1.239-3.023,4.236,4.236,0,0,1,3.014-1.262h.015a4.284,4.284,0,0,1,4.28,4.256,4.218,4.218,0,0,1-1.246,3.022A4.266,4.266,0,0,1-6215.345,78.616Zm9.761-.417h0a4.274,4.274,0,0,1-2.507-3.869,4.249,4.249,0,0,1,1.083-2.853c.555,2.214,1.034,4.475,1.425,6.72Zm-41.713-.4h0a12.163,12.163,0,0,0-1.935-.805l-4.914-1.588a4.3,4.3,0,0,1-.1-.92,4.279,4.279,0,0,1,4.26-4.284h.018a4.278,4.278,0,0,1,4.268,4.256,4.24,4.24,0,0,1-1.593,3.34Zm-86.617-.193,0,0a4.248,4.248,0,0,1-1.1-2.843,4.264,4.264,0,0,1,.213-1.348l.887,4.19Zm76.675-3.2h0l-7.668-2.478a4.243,4.243,0,0,1,3.384-1.687h.015a4.249,4.249,0,0,1,2.986,1.216,4.244,4.244,0,0,1,1.285,2.947Zm-131.217-6.253h-.015a4.276,4.276,0,0,1-1.562-.292c.8-2.721,1.732-5.433,2.771-8.06a4.3,4.3,0,0,1,2.2,1.507,4.215,4.215,0,0,1,.874,2.57,4.222,4.222,0,0,1-1.243,3.019A4.259,4.259,0,0,1-6388.456,68.151Zm11.542-.04h-.016a4.27,4.27,0,0,1-4.271-4.247,4.224,4.224,0,0,1,1.239-3.019,4.248,4.248,0,0,1,3.016-1.257h.015a4.279,4.279,0,0,1,4.277,4.247,4.225,4.225,0,0,1-1.245,3.019A4.249,4.249,0,0,1-6376.914,68.111Zm11.542-.038h-.015a4.281,4.281,0,0,1-4.282-4.247,4.281,4.281,0,0,1,4.268-4.277h.015a4.272,4.272,0,0,1,4.268,4.247A4.272,4.272,0,0,1-6365.372,68.073Zm11.54-.038h-.013a4.285,4.285,0,0,1-4.292-4.247,4.286,4.286,0,0,1,4.276-4.277h.015a4.272,4.272,0,0,1,4.266,4.248A4.269,4.269,0,0,1-6353.832,68.034ZM-6342.3,68h-.013a4.277,4.277,0,0,1-4.275-4.248,4.225,4.225,0,0,1,1.242-3.018,4.254,4.254,0,0,1,3.017-1.258h.015a4.273,4.273,0,0,1,4.269,4.247,4.231,4.231,0,0,1-1.239,3.02A4.246,4.246,0,0,1-6342.3,68Zm69.234-.234h-.015a4.275,4.275,0,0,1-4.277-4.247,4.221,4.221,0,0,1,1.24-3.019,4.264,4.264,0,0,1,3.023-1.258h.012a4.278,4.278,0,0,1,4.275,4.248A4.272,4.272,0,0,1-6273.066,67.761Zm11.534-.039h-.013a4.273,4.273,0,0,1-4.272-4.248,4.228,4.228,0,0,1,1.241-3.019,4.249,4.249,0,0,1,3.015-1.257h.015a4.274,4.274,0,0,1,4.271,4.247,4.229,4.229,0,0,1-1.241,3.019A4.247,4.247,0,0,1-6261.532,67.723Zm11.537-.038h-.013a4.279,4.279,0,0,1-4.277-4.248,4.273,4.273,0,0,1,4.261-4.276h.015A4.243,4.243,0,0,1-6247,60.4a4.232,4.232,0,0,1,1.254,3.005,4.228,4.228,0,0,1-1.237,3.019A4.245,4.245,0,0,1-6250,67.684Zm11.537-.04h-.015a4.273,4.273,0,0,1-4.268-4.247,4.27,4.27,0,0,1,4.253-4.277h.015a4.277,4.277,0,0,1,4.275,4.248,4.225,4.225,0,0,1-1.242,3.019A4.25,4.25,0,0,1-6238.458,67.644Zm11.535-.039h-.014a4.272,4.272,0,0,1-4.27-4.247,4.27,4.27,0,0,1,4.253-4.277h.015a4.275,4.275,0,0,1,4.276,4.248,4.219,4.219,0,0,1-1.242,3.018A4.254,4.254,0,0,1-6226.923,67.606Zm11.54-.038h-.016a4.27,4.27,0,0,1-4.266-4.248,4.229,4.229,0,0,1,1.239-3.018,4.241,4.241,0,0,1,3.014-1.258h.015a4.278,4.278,0,0,1,4.28,4.247A4.277,4.277,0,0,1-6215.383,67.567Zm-66.2-1.031h0l-7.261-2.347a4.315,4.315,0,0,1-.049-.636,4.273,4.273,0,0,1,4.256-4.277h.015a4.278,4.278,0,0,1,4.278,4.248,4.226,4.226,0,0,1-1.238,3.012Zm-10.32-3.335h0l-7.479-2.417a4.283,4.283,0,0,1,3.214-1.468h.015a4.26,4.26,0,0,1,2.892,1.125,4.241,4.241,0,0,1,1.36,2.759Zm-85.048-6.13h-.016a4.275,4.275,0,0,1-4.268-4.256A4.226,4.226,0,0,1-6380,49.8a4.249,4.249,0,0,1,3.017-1.258h.018a4.273,4.273,0,0,1,4.271,4.245,4.238,4.238,0,0,1-1.241,3.024A4.247,4.247,0,0,1-6376.954,57.072Zm11.543-.039h-.013a4.282,4.282,0,0,1-4.281-4.256,4.226,4.226,0,0,1,1.24-3.019,4.262,4.262,0,0,1,3.024-1.258h.015a4.274,4.274,0,0,1,4.269,4.248A4.275,4.275,0,0,1-6365.411,57.033Zm11.543-.039h-.016a4.289,4.289,0,0,1-4.29-4.258,4.283,4.283,0,0,1,4.277-4.276h.012a4.272,4.272,0,0,1,4.267,4.247A4.275,4.275,0,0,1-6353.867,56.995Zm11.532-.038h-.014a4.282,4.282,0,0,1-4.276-4.258,4.275,4.275,0,0,1,4.261-4.276h.015a4.27,4.27,0,0,1,4.267,4.247A4.275,4.275,0,0,1-6342.335,56.956Zm34.609-.119h-.018a4.281,4.281,0,0,1-4.275-4.256,4.275,4.275,0,0,1,4.264-4.276h.015a4.276,4.276,0,0,1,4.275,4.247,4.235,4.235,0,0,1-1.241,3.023A4.251,4.251,0,0,1-6307.726,56.837Zm11.544-.039h-.014a4.283,4.283,0,0,1-4.276-4.256,4.274,4.274,0,0,1,4.263-4.276h.018a4.269,4.269,0,0,1,4.264,4.245,4.244,4.244,0,0,1-1.24,3.024A4.239,4.239,0,0,1-6296.182,56.8Zm11.532-.039h-.014a4.279,4.279,0,0,1-4.271-4.256,4.273,4.273,0,0,1,4.258-4.277h.015a4.275,4.275,0,0,1,4.275,4.248,4.233,4.233,0,0,1-1.242,3.023A4.254,4.254,0,0,1-6284.649,56.76Zm11.545-.038h-.013a4.285,4.285,0,0,1-4.279-4.256,4.228,4.228,0,0,1,1.242-3.019,4.256,4.256,0,0,1,3.021-1.258h.015a4.251,4.251,0,0,1,3.017,1.242,4.237,4.237,0,0,1,1.256,3.006A4.28,4.28,0,0,1-6273.1,56.722Zm11.535-.04h-.014a4.279,4.279,0,0,1-4.272-4.256,4.271,4.271,0,0,1,4.256-4.276h.015a4.276,4.276,0,0,1,4.274,4.247A4.277,4.277,0,0,1-6261.569,56.682Zm11.537-.039h-.016a4.284,4.284,0,0,1-4.275-4.258,4.274,4.274,0,0,1,4.261-4.276h.015a4.244,4.244,0,0,1,3.014,1.242,4.232,4.232,0,0,1,1.253,3,4.241,4.241,0,0,1-1.237,3.024A4.239,4.239,0,0,1-6250.032,56.643Zm11.537-.038h-.014a4.278,4.278,0,0,1-4.269-4.256,4.273,4.273,0,0,1,4.256-4.277h.015a4.278,4.278,0,0,1,4.273,4.248,4.24,4.24,0,0,1-1.241,3.023A4.249,4.249,0,0,1-6238.5,56.6Zm11.534-.039h-.014a4.278,4.278,0,0,1-4.268-4.258A4.23,4.23,0,0,1-6230,49.29a4.244,4.244,0,0,1,3.013-1.258h.015a4.277,4.277,0,0,1,4.277,4.247,4.237,4.237,0,0,1-1.241,3.024A4.252,4.252,0,0,1-6226.962,56.566Zm11.542-.042h-.015a4.278,4.278,0,0,1-4.268-4.256,4.261,4.261,0,0,1,.95-2.7,4.283,4.283,0,0,1,2.4-1.479c1.352,2.391,2.612,4.869,3.747,7.366A4.275,4.275,0,0,1-6215.42,56.524Zm-170.263-.475h0c.471-1.059.96-2.1,1.455-3.108A4.276,4.276,0,0,1-6385.683,56.05Zm69.637-.649h0l-7.484-2.419c-.011-.122-.016-.243-.017-.361a4.228,4.228,0,0,1,1.241-3.019,4.255,4.255,0,0,1,3.021-1.258h.015A4.276,4.276,0,0,1-6315,52.592a4.266,4.266,0,0,1-1.042,2.808Zm-10.543-3.407h0l-1.974-.638a11.636,11.636,0,0,0-3.555-.612,6.979,6.979,0,0,0-2.739.515,4.277,4.277,0,0,1,4.029-2.876h.015a4.28,4.28,0,0,1,2.8,1.038,4.253,4.253,0,0,1,1.427,2.572Zm-50.4-5.981h-.015a4.271,4.271,0,0,1-2.817-1.057c1.481-2.4,3.084-4.755,4.762-7a4.244,4.244,0,0,1,2.331,3.781,4.225,4.225,0,0,1-1.244,3.019A4.251,4.251,0,0,1-6376.991,46.013Zm11.543-.038h-.014a4.278,4.278,0,0,1-4.281-4.248,4.222,4.222,0,0,1,1.241-3.018,4.259,4.259,0,0,1,3.023-1.258h.015a4.273,4.273,0,0,1,4.27,4.247A4.271,4.271,0,0,1-6365.448,45.974Zm11.542-.039h-.016a4.284,4.284,0,0,1-4.289-4.248,4.281,4.281,0,0,1,4.276-4.276h.015a4.271,4.271,0,0,1,4.264,4.247A4.269,4.269,0,0,1-6353.906,45.936Zm11.53-.04h-.015a4.274,4.274,0,0,1-4.272-4.247,4.229,4.229,0,0,1,1.241-3.019,4.251,4.251,0,0,1,3.018-1.258h.015a4.275,4.275,0,0,1,4.269,4.247A4.274,4.274,0,0,1-6342.375,45.9Zm11.537-.038h-.015a4.276,4.276,0,0,1-4.275-4.247,4.275,4.275,0,0,1,4.261-4.277h.015a4.252,4.252,0,0,1,3.018,1.242,4.232,4.232,0,0,1,1.255,3.006,4.228,4.228,0,0,1-1.24,3.018A4.253,4.253,0,0,1-6330.838,45.857Zm11.543-.039h-.014a4.254,4.254,0,0,1-3.019-1.242,4.232,4.232,0,0,1-1.257-3,4.226,4.226,0,0,1,1.239-3.02,4.257,4.257,0,0,1,3.022-1.257h.015a4.273,4.273,0,0,1,4.268,4.247,4.227,4.227,0,0,1-1.241,3.019A4.244,4.244,0,0,1-6319.3,45.819Zm11.531-.038h-.013a4.279,4.279,0,0,1-4.279-4.248,4.275,4.275,0,0,1,4.263-4.276h.015A4.28,4.28,0,0,1-6303.5,41.5,4.28,4.28,0,0,1-6307.765,45.78Zm11.546-.04h-.015a4.279,4.279,0,0,1-4.275-4.247,4.227,4.227,0,0,1,1.243-3.019,4.257,4.257,0,0,1,3.02-1.258h.015a4.272,4.272,0,0,1,4.268,4.248A4.272,4.272,0,0,1-6296.218,45.74Zm11.532-.039h-.013a4.277,4.277,0,0,1-4.274-4.248,4.274,4.274,0,0,1,4.258-4.276h.015a4.278,4.278,0,0,1,4.278,4.248A4.277,4.277,0,0,1-6284.686,45.7Zm11.546-.039h-.015a4.276,4.276,0,0,1-4.277-4.248,4.226,4.226,0,0,1,1.242-3.019,4.257,4.257,0,0,1,3.021-1.257h.015a4.249,4.249,0,0,1,3.016,1.241,4.235,4.235,0,0,1,1.256,3.005A4.274,4.274,0,0,1-6273.14,45.663Zm11.532-.038h-.013a4.276,4.276,0,0,1-4.272-4.248,4.229,4.229,0,0,1,1.242-3.019,4.243,4.243,0,0,1,3.015-1.256h.018a4.27,4.27,0,0,1,4.267,4.247A4.273,4.273,0,0,1-6261.608,45.625Zm11.536-.04h-.013a4.279,4.279,0,0,1-4.275-4.248,4.274,4.274,0,0,1,4.261-4.276h.015a4.271,4.271,0,0,1,4.267,4.245,4.237,4.237,0,0,1-1.237,3.021A4.245,4.245,0,0,1-6250.072,45.584Zm11.54-.039h-.011a4.275,4.275,0,0,1-4.272-4.248,4.27,4.27,0,0,1,4.255-4.276h.015a4.275,4.275,0,0,1,4.273,4.247,4.229,4.229,0,0,1-1.241,3.019A4.251,4.251,0,0,1-6238.532,45.546Zm11.532-.038h-.015a4.273,4.273,0,0,1-4.268-4.248,4.23,4.23,0,0,1,1.24-3.019,4.241,4.241,0,0,1,3.015-1.256h.015a4.274,4.274,0,0,1,4.275,4.247,4.223,4.223,0,0,1-1.242,3.019A4.256,4.256,0,0,1-6227,45.507Zm-138.486-10.574h-.014a4.272,4.272,0,0,1-4.211-3.507c1.529-1.707,3.146-3.384,4.805-4.985a4.258,4.258,0,0,1,2.613,1.4,4.26,4.26,0,0,1,1.064,2.807,4.241,4.241,0,0,1-1.24,3.023A4.242,4.242,0,0,1-6365.486,34.933Zm11.542-.039h-.013a4.29,4.29,0,0,1-4.292-4.256,4.283,4.283,0,0,1,4.276-4.276h.018a4.269,4.269,0,0,1,4.262,4.247A4.274,4.274,0,0,1-6353.944,34.895Zm11.534-.039h-.013A4.283,4.283,0,0,1-6346.7,30.6a4.276,4.276,0,0,1,4.261-4.277h.015a4.246,4.246,0,0,1,3.013,1.239,4.233,4.233,0,0,1,1.255,3.01,4.244,4.244,0,0,1-1.24,3.023A4.239,4.239,0,0,1-6342.411,34.856Zm11.534-.04h-.015a4.28,4.28,0,0,1-4.274-4.256,4.224,4.224,0,0,1,1.242-3.022,4.257,4.257,0,0,1,3.019-1.254h.015a4.255,4.255,0,0,1,3.018,1.238,4.227,4.227,0,0,1,1.256,3.008A4.278,4.278,0,0,1-6330.877,34.816Zm11.543-.039h-.014a4.283,4.283,0,0,1-4.276-4.256,4.238,4.238,0,0,1,1.242-3.022,4.255,4.255,0,0,1,3.019-1.254h.015a4.248,4.248,0,0,1,3.012,1.238,4.228,4.228,0,0,1,1.257,3.008,4.242,4.242,0,0,1-1.241,3.023A4.24,4.24,0,0,1-6319.334,34.778Zm11.532-.039h-.014a4.282,4.282,0,0,1-4.277-4.256,4.225,4.225,0,0,1,1.242-3.022,4.261,4.261,0,0,1,3.019-1.255h.012a4.267,4.267,0,0,1,3.022,1.239,4.22,4.22,0,0,1,1.258,3.01,4.239,4.239,0,0,1-1.243,3.023A4.252,4.252,0,0,1-6307.8,34.739Zm11.545-.04h-.015a4.277,4.277,0,0,1-4.274-4.255,4.226,4.226,0,0,1,1.242-3.023,4.255,4.255,0,0,1,3.018-1.254h.015a4.247,4.247,0,0,1,3.014,1.238A4.23,4.23,0,0,1-6292,30.414a4.244,4.244,0,0,1-1.239,3.024A4.234,4.234,0,0,1-6296.257,34.7Zm11.532-.037h-.013a4.278,4.278,0,0,1-4.272-4.258,4.227,4.227,0,0,1,1.24-3.022,4.25,4.25,0,0,1,3.016-1.254h.015a4.26,4.26,0,0,1,3.019,1.238,4.219,4.219,0,0,1,1.257,3.008A4.234,4.234,0,0,1-6281.7,33.4,4.256,4.256,0,0,1-6284.725,34.662Zm11.546-.04h-.015a4.28,4.28,0,0,1-4.277-4.256,4.227,4.227,0,0,1,1.241-3.023,4.256,4.256,0,0,1,3.022-1.253h.018a4.249,4.249,0,0,1,3.015,1.238,4.225,4.225,0,0,1,1.254,3.009A4.279,4.279,0,0,1-6273.178,34.622Zm11.534-.04h-.013a4.28,4.28,0,0,1-4.274-4.256,4.229,4.229,0,0,1,1.241-3.022,4.246,4.246,0,0,1,3.015-1.253h.015a4.25,4.25,0,0,1,3.016,1.239,4.232,4.232,0,0,1,1.256,3.01A4.277,4.277,0,0,1-6261.645,34.582Zm11.535-.038h-.014a4.281,4.281,0,0,1-4.274-4.256,4.275,4.275,0,0,1,4.261-4.276h.015a4.243,4.243,0,0,1,3.013,1.238,4.237,4.237,0,0,1,1.254,3.008A4.275,4.275,0,0,1-6250.109,34.543Zm11.54-.039h-.016a4.278,4.278,0,0,1-4.268-4.256,4.226,4.226,0,0,1,1.239-3.022,4.246,4.246,0,0,1,3.014-1.254h.015a4.255,4.255,0,0,1,3.018,1.238,4.233,4.233,0,0,1,1.257,3.008,4.234,4.234,0,0,1-1.241,3.023A4.249,4.249,0,0,1-6238.569,34.5Zm11.534-.039h-.014a4.277,4.277,0,0,1-4.27-4.256,4.231,4.231,0,0,1,.323-1.652c1.782,1.828,3.514,3.758,5.15,5.737A4.217,4.217,0,0,1-6227.036,34.466Zm-126.947-10.621H-6354a4.31,4.31,0,0,1-2.688-.945,4.293,4.293,0,0,1-1.495-2.368c2.042-1.629,4.173-3.19,6.337-4.641a4.287,4.287,0,0,1,2.11,3.669A4.275,4.275,0,0,1-6353.983,23.845Zm11.532-.039h-.013a4.282,4.282,0,0,1-4.274-4.258,4.28,4.28,0,0,1,4.26-4.285h.012a4.281,4.281,0,0,1,4.272,4.258A4.276,4.276,0,0,1-6342.451,23.807Zm11.537-.04h-.014a4.279,4.279,0,0,1-4.274-4.256,4.278,4.278,0,0,1,4.26-4.285h.012a4.282,4.282,0,0,1,4.278,4.256A4.278,4.278,0,0,1-6330.914,23.767Zm11.543-.039h-.015a4.283,4.283,0,0,1-4.275-4.256,4.28,4.28,0,0,1,4.261-4.285h.015a4.278,4.278,0,0,1,4.269,4.256A4.275,4.275,0,0,1-6319.371,23.728Zm11.53-.04h-.014a4.279,4.279,0,0,1-4.276-4.256,4.236,4.236,0,0,1,1.24-3.021,4.249,4.249,0,0,1,3.023-1.263h.018a4.28,4.28,0,0,1,4.274,4.255A4.28,4.28,0,0,1-6307.84,23.688Zm11.546-.038h-.016a4.282,4.282,0,0,1-4.274-4.258,4.278,4.278,0,0,1,4.261-4.284h.012a4.279,4.279,0,0,1,4.272,4.256A4.275,4.275,0,0,1-6296.294,23.65Zm11.532-.038h-.014a4.281,4.281,0,0,1-4.272-4.256,4.279,4.279,0,0,1,4.258-4.287h.012a4.282,4.282,0,0,1,4.28,4.258,4.233,4.233,0,0,1-1.242,3.023A4.251,4.251,0,0,1-6284.762,23.611Zm11.545-.037h-.013a4.283,4.283,0,0,1-4.279-4.258,4.24,4.24,0,0,1,1.242-3.023,4.251,4.251,0,0,1,3.021-1.262h.015a4.277,4.277,0,0,1,4.272,4.256A4.281,4.281,0,0,1-6273.217,23.574Zm11.535-.042h-.014a4.28,4.28,0,0,1-4.272-4.258,4.276,4.276,0,0,1,4.258-4.284h.015a4.276,4.276,0,0,1,4.269,4.256,4.238,4.238,0,0,1-1.239,3.023A4.242,4.242,0,0,1-6261.682,23.533Zm11.536-.039h-.018a4.281,4.281,0,0,1-4.272-4.256,4.281,4.281,0,0,1,4.259-4.285h.012a4.279,4.279,0,0,1,4.272,4.256,4.24,4.24,0,0,1-1.24,3.027A4.235,4.235,0,0,1-6250.146,23.494Zm11.538-.038h-.014a4.278,4.278,0,0,1-4.269-4.256,4.247,4.247,0,0,1,.1-.923c2.051,1.51,4.061,3.119,5.976,4.781A4.3,4.3,0,0,1-6238.608,23.456ZM-6342.486,12.75h-.014a4.3,4.3,0,0,1-2.679-.94c2.276-1.269,4.612-2.448,6.942-3.505,0,.066,0,.121,0,.175A4.267,4.267,0,0,1-6342.486,12.75Zm11.534-.038h-.014a4.276,4.276,0,0,1-4.274-4.243,4.246,4.246,0,0,1,.3-1.583c1.961-.8,3.975-1.547,5.986-2.216a4.285,4.285,0,0,1,2.267,3.77A4.273,4.273,0,0,1-6330.953,12.711Zm11.545-.038h-.016a4.274,4.274,0,0,1-4.274-4.242,4.286,4.286,0,0,1,4.261-4.3h.015a4.283,4.283,0,0,1,4.268,4.272A4.269,4.269,0,0,1-6319.408,12.673Zm11.532-.04h-.015a4.277,4.277,0,0,1-4.279-4.24,4.288,4.288,0,0,1,4.265-4.3h.015a4.289,4.289,0,0,1,4.277,4.272A4.271,4.271,0,0,1-6307.875,12.633Zm11.546-.038h-.014a4.278,4.278,0,0,1-4.277-4.243,4.287,4.287,0,0,1,4.263-4.3h.018a4.285,4.285,0,0,1,4.266,4.269A4.271,4.271,0,0,1-6296.329,12.594Zm11.529-.038h-.014a4.272,4.272,0,0,1-4.271-4.242,4.285,4.285,0,0,1,4.258-4.3h.015a4.294,4.294,0,0,1,4.279,4.271A4.276,4.276,0,0,1-6284.8,12.556Zm11.547-.042h-.016a4.272,4.272,0,0,1-4.276-4.242,4.285,4.285,0,0,1,4.263-4.3h.015A4.285,4.285,0,0,1-6269,8.245a4.22,4.22,0,0,1-1.239,3.014A4.245,4.245,0,0,1-6273.253,12.514Zm11.533-.037h-.013a4.273,4.273,0,0,1-4.272-4.242,4.278,4.278,0,0,1,.629-2.254c2.633,1,5.246,2.124,7.767,3.348A4.279,4.279,0,0,1-6261.72,12.477Zm-46.194-10.9h-.014A4.286,4.286,0,0,1-6310.7.565c2.006-.246,4.055-.431,6.088-.55A4.274,4.274,0,0,1-6307.914,1.582Zm11.546-.038h-.014a4.257,4.257,0,0,1-3.409-1.688h.229l.229,0h.306c1.979,0,3.966.061,5.906.18A4.27,4.27,0,0,1-6296.368,1.543Zm11.532-.04h-.016a4.289,4.289,0,0,1-2.713-.969c1.478.177,2.953.39,4.386.631A4.237,4.237,0,0,1-6284.835,1.5Z" transform="matrix(0.978, 0.208, -0.208, 0.978, 17226.98, 2034.931)" fill="#343434" stroke="rgba(0,0,0,0)" stroke-miterlimit="10" stroke-width="1"/>
    </g>
  </g>
</svg>
