<?xml version="1.0" encoding="utf-8"?>
<!-- Generator: Adobe Illustrator 25.0.1, SVG Export Plug-In . SVG Version: 6.00 Build 0)  -->
<svg version="1.1" id="레이어_1" xmlns="http://www.w3.org/2000/svg" xmlns:xlink="http://www.w3.org/1999/xlink" x="0px"
	 y="0px" viewBox="0 0 44.6 43.1" style="enable-background:new 0 0 44.6 43.1;" xml:space="preserve">
<style type="text/css">
	.st0{fill:#F8B73D;}
	.st1{fill:#000004;}
</style>
<g>
	<g>
		<circle class="st0" cx="24.6" cy="23.2" r="20"/>
	</g>
	<path class="st1" d="M20,3.2c9.2,0,16.8,7.5,16.8,16.8S29.2,36.7,20,36.7S3.2,29.3,3.2,20S10.7,3.2,20,3.2 M20,0C8.9,0,0,9,0,19.9
		s9,20,20,20s20-9,20-20S31,0,20,0L20,0z"/>
	<path d="M15,13.3L26.6,20L15,26.8L15,13.3 M14.9,11.1c-1.1,0-2.1,0.9-2.1,2.1v13.7c0,1.2,1,2.1,2.1,2.1c0.3,0,0.7-0.1,1-0.3
		l11.9-6.9c1.4-0.8,1.4-2.8,0-3.6L16,11.4C15.6,11.2,15.3,11.1,14.9,11.1L14.9,11.1z"/>
</g>
</svg>
