<?xml version="1.0" encoding="utf-8"?>
<!-- Generator: Adobe Illustrator 25.0.1, SVG Export Plug-In . SVG Version: 6.00 Build 0)  -->
<svg version="1.1" id="레이어_1" xmlns="http://www.w3.org/2000/svg" xmlns:xlink="http://www.w3.org/1999/xlink" x="0px"
	 y="0px" viewBox="0 0 170.1 16.9" style="enable-background:new 0 0 170.1 16.9;" xml:space="preserve">
<style type="text/css">
	.st0{fill:#F8B73D;}
</style>
<g>
	<path d="M0.5,1.8C0.2,1.8,0,1.6,0,1.3c0-0.4,0.2-0.6,0.5-0.6h11c0.4,0,0.5,0.2,0.5,0.6c0,0.4-0.2,0.6-0.5,0.6H6.7V16
		c0,0.3-0.2,0.5-0.6,0.5c-0.4,0-0.6-0.2-0.6-0.5V1.8H0.5z"/>
	<path d="M14.5,10.9V1c0-0.3,0.2-0.5,0.7-0.5c0.4,0,0.6,0.2,0.6,0.5v9.6c0,3.5,1.6,4.7,4.4,4.7c2.7,0,4.4-1.3,4.4-4.7V1
		c0-0.3,0.2-0.5,0.6-0.5s0.6,0.2,0.6,0.5v9.8c0,4.1-2.2,5.8-5.7,5.8C16.7,16.6,14.5,14.9,14.5,10.9z"/>
	<path d="M30.4,2.5V16c0,0.3-0.2,0.5-0.6,0.5c-0.4,0-0.6-0.2-0.6-0.5V1.2c0-0.4,0.3-0.7,0.8-0.7c0.5,0,0.9,0.4,1.2,0.8l8.1,13.2V1
		c0-0.3,0.2-0.5,0.6-0.5c0.4,0,0.7,0.2,0.7,0.5v14.8c0,0.4-0.3,0.7-0.8,0.7c-0.6,0-0.8-0.3-1.1-0.9L30.4,2.5z"/>
	<path d="M43.4,1.8c-0.4,0-0.5-0.2-0.5-0.6c0-0.4,0.2-0.6,0.5-0.6h11c0.4,0,0.5,0.2,0.5,0.6c0,0.4-0.2,0.6-0.5,0.6h-4.9V16
		c0,0.3-0.2,0.5-0.6,0.5c-0.4,0-0.6-0.2-0.6-0.5V1.8H43.4z"/>
	<path d="M57.4,10.9V1c0-0.3,0.2-0.5,0.7-0.5c0.4,0,0.6,0.2,0.6,0.5v9.6c0,3.5,1.6,4.7,4.4,4.7c2.7,0,4.4-1.3,4.4-4.7V1
		c0-0.3,0.2-0.5,0.6-0.5s0.6,0.2,0.6,0.5v9.8c0,4.1-2.2,5.8-5.7,5.8C59.6,16.6,57.4,14.9,57.4,10.9z"/>
	<path d="M73.3,2.5V16c0,0.3-0.2,0.5-0.6,0.5c-0.4,0-0.6-0.2-0.6-0.5V1.2c0-0.4,0.3-0.7,0.8-0.7c0.6,0,0.9,0.4,1.2,0.8l8.1,13.2V1
		c0-0.3,0.2-0.5,0.6-0.5c0.4,0,0.7,0.2,0.7,0.5v14.8c0,0.4-0.3,0.7-0.8,0.7c-0.5,0-0.8-0.3-1.1-0.9L73.3,2.5z"/>
	<path class="st0" d="M89.7,2.4c0-1.6,0.9-2.2,2.4-2.2h3.4c3.8,0,5.8,1.8,5.8,5.1c0,3.5-2.1,5.4-5.7,5.4h-3.1v5
		c0,0.8-0.7,1.2-1.4,1.2c-0.7,0-1.4-0.4-1.4-1.2V2.4z M95.1,8.3c2.4,0,3.4-1.1,3.4-2.9c0-1.8-0.9-2.8-3.4-2.8h-2
		c-0.4,0-0.5,0.1-0.5,0.5v5.1H95.1z"/>
	<path class="st0" d="M103.9,1.2c0-0.8,0.7-1.2,1.4-1.2c0.7,0,1.4,0.4,1.4,1.2v12.2c0,0.5,0.2,0.7,0.7,0.7h6c0.7,0,1.2,0.7,1.2,1.3
		c0,0.7-0.4,1.3-1.1,1.3h-7.2c-1.8,0-2.4-0.7-2.4-2.4V1.2z"/>
	<path class="st0" d="M121.4,1.2c0.6-1.6,2.8-1.6,3.5,0.1l5.4,14c0.7,1.6-2.4,2.5-3,0.8l-1.2-3.4H120l-1.2,3.4
		c-0.6,1.8-3.5,0.9-2.8-0.8L121.4,1.2z M120.8,10h4.4L123,3.8L120.8,10z"/>
	<path class="st0" d="M134.8,15.7v-5.5l-5-8.1c-1.1-1.8,1.6-3,2.6-1.3l3.9,6.8l3.9-6.9c0.8-1.6,3.2-0.3,2.4,1.1l-4.9,8.3v5.5
		c0,0.8-0.7,1.2-1.5,1.2C135.5,16.9,134.8,16.5,134.8,15.7z"/>
	<path class="st0" d="M144.8,2.4c0-1.7,0.9-2.2,2.4-2.2h7c0.8,0,1.3,0.6,1.3,1.3c0,0.6-0.4,1.3-1.3,1.3h-5.9c-0.5,0-0.7,0.2-0.7,0.7
		v3.3h6c0.7,0,1.1,0.6,1.1,1.3c0,0.6-0.4,1.2-1.1,1.2h-6v4c0,0.5,0.2,0.7,0.7,0.7h6c0.7,0,1.2,0.7,1.2,1.3c0,0.7-0.4,1.3-1.1,1.3
		h-7.2c-1.7,0-2.4-0.7-2.4-2.4V2.4z"/>
	<path class="st0" d="M158.2,2.4c0-1.6,0.8-2.2,2.4-2.2h3.3c3.6,0,5.8,1.7,5.8,4.9c0,2.2-1.1,3.8-2.9,4.5l3.2,5.1
		c1,1.5-1.6,3-2.5,1.5l-3.5-6.1h0H161v5.6c0,0.8-0.7,1.2-1.4,1.2c-0.7,0-1.5-0.4-1.5-1.2V2.4z M161,7.7h2.3c2.2,0,3.3-0.8,3.3-2.5
		c0-1.8-1.1-2.5-3.3-2.5h-1.8c-0.4,0-0.5,0.1-0.5,0.5V7.7z"/>
</g>
</svg>
