<?xml version="1.0" encoding="utf-8"?>
<!-- Generator: Adobe Illustrator 25.0.1, SVG Export Plug-In . SVG Version: 6.00 Build 0)  -->
<svg version="1.1" id="Capa_1" xmlns="http://www.w3.org/2000/svg" xmlns:xlink="http://www.w3.org/1999/xlink" x="0px" y="0px"
	 viewBox="0 0 147.7 53.8" style="enable-background:new 0 0 147.7 53.8;" xml:space="preserve">
<style type="text/css">
	.st0{fill:#F8B73D;}
	.st1{fill:#000004;}
</style>
<g>
	<circle class="st0" cx="30.7" cy="28.9" r="24.9"/>
</g>
<path class="st1" d="M24.9,4c11.5,0,20.9,9.4,20.9,20.9s-9.4,20.9-20.9,20.9S4,36.5,4,25S13.4,4,24.9,4 M24.9,0
	C11.1,0,0,11.2,0,24.9s11.2,24.9,24.9,24.9s24.9-11.2,24.9-24.9S38.7,0,24.9,0L24.9,0z"/>
<g>
	<path d="M62.9,8.6c-0.4,0-0.5-0.2-0.5-0.6s0.2-0.6,0.5-0.6h11.3c0.4,0,0.6,0.2,0.6,0.6s-0.2,0.6-0.5,0.6h-5v14.5
		c0,0.3-0.2,0.5-0.6,0.5S68,23.4,68,23.1V8.6H62.9z"/>
	<path d="M77.2,17.8V7.7c0-0.3,0.2-0.5,0.7-0.5s0.7,0.2,0.7,0.5v9.9c0,3.6,1.7,4.8,4.5,4.8c2.7,0,4.5-1.3,4.5-4.8V7.7
		c0-0.3,0.2-0.5,0.7-0.5c0.4,0,0.7,0.2,0.7,0.5v10c0,4.2-2.2,5.9-5.8,5.9C79.4,23.7,77.2,21.9,77.2,17.8z"/>
	<path d="M93.5,9.2v13.9c0,0.3-0.2,0.5-0.6,0.5c-0.4,0-0.7-0.2-0.7-0.5V8c0-0.4,0.3-0.7,0.8-0.7c0.6,0,0.9,0.4,1.2,0.8l8.3,13.5V7.8
		c0-0.3,0.2-0.5,0.7-0.5c0.4,0,0.7,0.2,0.7,0.5V23c0,0.4-0.3,0.7-0.8,0.7c-0.6,0-0.9-0.3-1.1-0.9L93.5,9.2z"/>
	<path d="M106.8,8.6c-0.4,0-0.5-0.2-0.5-0.6s0.2-0.6,0.5-0.6h11.3c0.4,0,0.6,0.2,0.6,0.6s-0.2,0.6-0.5,0.6h-5v14.5
		c0,0.3-0.2,0.5-0.6,0.5c-0.4,0-0.7-0.2-0.7-0.5V8.6H106.8z"/>
	<path d="M121.1,17.8V7.7c0-0.3,0.2-0.5,0.7-0.5s0.7,0.2,0.7,0.5v9.9c0,3.6,1.7,4.8,4.5,4.8c2.7,0,4.5-1.3,4.5-4.8V7.7
		c0-0.3,0.2-0.5,0.7-0.5c0.4,0,0.7,0.2,0.7,0.5v10c0,4.2-2.2,5.9-5.8,5.9C123.3,23.7,121.1,21.9,121.1,17.8z"/>
	<path d="M137.4,9.2v13.9c0,0.3-0.2,0.5-0.6,0.5c-0.4,0-0.7-0.2-0.7-0.5V8c0-0.4,0.3-0.7,0.8-0.7c0.6,0,0.9,0.4,1.2,0.8l8.3,13.5
		V7.8c0-0.3,0.2-0.5,0.7-0.5c0.4,0,0.7,0.2,0.7,0.5V23c0,0.4-0.3,0.7-0.8,0.7c-0.6,0-0.9-0.3-1.1-0.9L137.4,9.2z"/>
</g>
<g>
	<path class="st0" d="M62.5,33.5c0-1.6,0.9-2.2,2.4-2.2h3.5c3.9,0,5.9,1.8,5.9,5.2c0,3.6-2.2,5.5-5.8,5.5h-3.1v5.2
		c0,0.8-0.7,1.2-1.5,1.2s-1.5-0.4-1.5-1.2L62.5,33.5L62.5,33.5z M67.9,39.6c2.5,0,3.4-1.1,3.4-2.9c0-1.9-0.9-2.8-3.4-2.8h-2
		c-0.4,0-0.5,0.1-0.5,0.5v5.2L67.9,39.6L67.9,39.6z"/>
	<path class="st0" d="M77.5,32.3c0-0.8,0.7-1.2,1.5-1.2c0.7,0,1.5,0.4,1.5,1.2v12.5c0,0.5,0.2,0.7,0.7,0.7h6.2
		c0.8,0,1.2,0.7,1.2,1.4s-0.4,1.3-1.2,1.3H80c-1.8,0-2.5-0.7-2.5-2.5V32.3z"/>
	<path class="st0" d="M95.9,32.3c0.6-1.6,2.9-1.6,3.5,0.1l5.5,14.3c0.7,1.7-2.5,2.5-3.1,0.8l-1.2-3.5h-6.2l-1.2,3.5
		c-0.6,1.8-3.5,0.9-2.9-0.8L95.9,32.3z M95.3,41.4h4.5L97.6,35L95.3,41.4z"/>
	<path class="st0" d="M110.1,47.2v-5.7l-5.1-8.2c-1.1-1.8,1.7-3.1,2.6-1.4l4,6.9l4-7c0.9-1.6,3.3-0.3,2.5,1.2l-5,8.5v5.7
		c0,0.8-0.7,1.2-1.5,1.2S110.1,48,110.1,47.2z"/>
	<path class="st0" d="M121,33.6c0-1.7,0.9-2.3,2.5-2.3h7.2c0.8,0,1.3,0.7,1.3,1.3c0,0.7-0.5,1.3-1.3,1.3h-6c-0.5,0-0.7,0.2-0.7,0.7
		V38h6.2c0.8,0,1.1,0.7,1.1,1.3c0,0.7-0.4,1.3-1.1,1.3H124v4.1c0,0.5,0.2,0.7,0.7,0.7h6.2c0.8,0,1.2,0.7,1.2,1.4s-0.4,1.3-1.2,1.3
		h-7.4c-1.8,0-2.5-0.7-2.5-2.4V33.6z"/>
	<path class="st0" d="M135.2,33.5c0-1.6,0.8-2.2,2.4-2.2h3.3c3.7,0,6,1.8,6,5c0,2.3-1.1,3.9-2.9,4.6l3.2,5.3c1,1.6-1.6,3.1-2.5,1.5
		l-3.6-6.3l0,0h-2.9v5.7c0,0.8-0.7,1.2-1.4,1.2c-0.8,0-1.5-0.4-1.5-1.2V33.5H135.2z M138.1,39h2.4c2.3,0,3.4-0.9,3.4-2.6
		c0-1.8-1.1-2.6-3.4-2.6h-1.9c-0.4,0-0.5,0.1-0.5,0.5V39z"/>
</g>
<path d="M18.7,16.6L33.2,25l-14.5,8.4L18.7,16.6 M18.6,13.9c-1.4,0-2.6,1.1-2.6,2.6v17.1c0,1.5,1.2,2.6,2.6,2.6
	c0.4,0,0.9-0.1,1.3-0.4l14.8-8.6c1.7-1,1.7-3.5,0-4.5l-14.8-8.6C19.5,14,19,13.9,18.6,13.9L18.6,13.9z"/>
</svg>
